# xmcd
#
# Track frame offsets:
#	150
#	14988
#	33624
#	49067
#	63718
#	83071
#	97305
#	114946
#	129713
#	149989
#	170833
#
# Disc length: 2565 seconds
#
# Revision: 0
# Processed by: cddbd v1.5PL3 Copyright (c) Steve Scherf et al.
# Submitted via: dBpowerAMP V4.0
#
DISCID=b10a030b
DTITLE=Juile Roberts - Julie Roberts
DYEAR=2004
DGENRE=Country
TTITLE0=You Ain't Down Home
TTITLE1=Break Down Here
TTITLE2=Pot Of Gold
TTITLE3=Unlove Me
TTITLE4=Just Cause We Can
TTITLE5=Wake Up Older
TTITLE6=If You Had Called Yesterday
TTITLE7=No Way Out
TTITLE8=I Can't Get Over You
TTITLE9=Rain On The Tin Roof
TTITLE10=The Chance
EXTD=
EXTT0=
EXTT1=
EXTT2=
EXTT3=
EXTT4=
EXTT5=
EXTT6=
EXTT7=
EXTT8=
EXTT9=
EXTT10=
PLAYORDER=
